<svg xmlns="http://www.w3.org/2000/svg" fill="#61DAFB" xmlns:xlink="http://www.w3.org/1999/xlink" version="1.1" x="0px" y="0px" viewBox="0 0 128 128" style="enable-background:new 0 0 128 128;" xml:space="preserve"><g><path d="M64,4C30.9,4,4,30.9,4,64s26.9,60,60,60s60-26.9,60-60S97.1,4,64,4z M69,31.5c3.9,0.6,7.5,1.8,10.7,3.6   l-6.5,8.4c-1.4-0.6-2.8-1-4.3-1.4V31.5z M59.2,31.5v10.6c-0.3,0.1-10.7-7-10.7-7C51.7,33.3,55.4,32.1,59.2,31.5z M46.8,36.1   c0.1,0.1,0.2,0.2,0.3,0.3l9.9,6.3c0,0,0,0,0,0c-1.2,0.4-2.3,0.9-3.4,1.5c-0.1-0.2-0.2-0.3-0.4-0.4L44,38.1   C44.9,37.3,45.8,36.7,46.8,36.1z M42.6,39.2c0.1,0.1,0.2,0.3,0.3,0.4l9.1,5.6c-1.2,0.8-2.4,1.7-3.4,2.7l-9.4-5.2   C40.3,41.4,41.4,40.2,42.6,39.2z M63.9,96.5c-18.1,0-32.7-14.6-32.7-32.7c0-4.6,1-9,2.7-13l9.2,5c-0.9,2.6-1.4,5.2-1.4,8   c0,12.4,10.1,22.3,22.3,22.3c4.1,0,7.9-1,11.2-3l6.7,7.7C76.8,94.4,70.6,96.5,63.9,96.5z M89.4,84.6l-7-8.1c2.5-3.6,3.9-8,3.9-12.7   c0-5.6-1.9-10.6-5.3-14.5l6.5-8.4c5.8,5.9,9.3,14.1,9.3,23C96.7,71.8,94,78.9,89.4,84.6z"/></g></svg>